<svg xmlns="http://www.w3.org/2000/svg" width="104" height="105" viewBox="0 0 104 105" version="1.1"><path d="M 73.610 21.542 C 69.974 26.362, 67.012 30.574, 67.027 30.902 C 67.042 31.231, 68.623 33.188, 70.541 35.251 L 74.028 39.001 83.014 32.271 C 87.956 28.569, 92 25.292, 92 24.989 C 92 24.685, 89.349 21.814, 86.110 18.608 L 80.219 12.780 73.610 21.542 M 94 45.985 C 91.525 46.397, 86.912 47.052, 83.750 47.439 L 78 48.144 78 53.553 C 78 58.344, 78.257 59.020, 80.250 59.472 C 81.487 59.752, 85.425 60.432, 89 60.983 C 92.575 61.534, 96.737 61.988, 98.250 61.992 L 101 62 101 53.500 C 101 47.304, 100.661 45.032, 99.750 45.118 C 99.063 45.182, 96.475 45.573, 94 45.985 M 70.250 72.419 C 68.463 74.232, 67 76.065, 67 76.493 C 67 76.920, 69.993 81.290, 73.652 86.204 L 80.303 95.137 86.152 89.350 C 89.368 86.167, 92 83.223, 92 82.808 C 92 82.393, 88.106 79.116, 83.348 75.526 C 78.589 71.937, 74.426 69.027, 74.098 69.061 C 73.769 69.095, 72.037 70.606, 70.250 72.419" stroke="none" fill="#f48434" fill-rule="evenodd"/><path d="M 43.412 9.250 C 43.781 12.138, 44.560 17.313, 45.144 20.750 L 46.205 27 51.557 27 C 56.817 27, 56.919 26.944, 57.456 23.750 C 57.756 21.962, 58.448 17.575, 58.993 14 C 59.539 10.425, 59.988 6.713, 59.992 5.750 C 59.999 4.218, 58.925 4, 51.371 4 L 42.742 4 43.412 9.250 M 16.509 18.991 C 12.920 22.617, 10.960 25.319, 11.541 25.837 C 12.068 26.308, 16.175 29.454, 20.668 32.829 L 28.835 38.965 32.418 35.382 C 34.388 33.412, 36 31.464, 36 31.052 C 36 30.641, 33.063 26.411, 29.474 21.652 C 25.884 16.894, 22.832 13, 22.692 13 C 22.552 13, 19.770 15.696, 16.509 18.991 M 2 53.455 L 2 62 4.750 61.992 C 6.263 61.988, 10.425 61.534, 14 60.983 C 17.575 60.432, 21.512 59.752, 22.750 59.472 C 24.748 59.019, 25 58.347, 25 53.481 C 25 49.773, 24.596 47.994, 23.750 47.980 C 23.063 47.969, 19.350 47.527, 15.500 46.996 C 11.650 46.466, 7.038 45.780, 5.250 45.471 L 2 44.909 2 53.455 M 19.750 75.499 C 14.938 79.064, 11 82.337, 11 82.772 C 11 83.207, 13.632 86.167, 16.848 89.350 L 22.697 95.137 29.348 86.204 C 33.007 81.290, 36 76.848, 36 76.331 C 36 75.815, 34.516 73.954, 32.702 72.196 C 30.889 70.438, 29.201 69.004, 28.952 69.008 C 28.704 69.013, 24.563 71.933, 19.750 75.499 M 45.982 80.750 C 45.972 81.162, 45.305 85.775, 44.500 91 C 43.695 96.225, 43.028 101.063, 43.018 101.750 C 43.005 102.653, 45.357 103, 51.500 103 C 56.813 103, 60 102.603, 60 101.942 C 60 101.359, 59.538 97.647, 58.974 93.692 C 58.409 89.736, 57.714 85.037, 57.428 83.250 C 56.916 80.044, 56.836 80, 51.455 80 C 48.455 80, 45.992 80.338, 45.982 80.750" stroke="none" fill="#1c337c" fill-rule="evenodd"/></svg>